# xmcd
#
# Track frame offsets: 
#        150
#        23920
#        35220
#        48991
#        60628
#        74853
#        89692
#        106407
#        121341
#        135228
#        152327
#        165235
#        179945
#        194382
#        209642
#        221825
#
# Disc length: 3154 seconds
#
# Revision: 0
# Processed by: cddbd v1.5.2PL0 Copyright (c) Steve Scherf et al.
# Submitted via: ExactAudioCopy v1.0b1
#
DISCID=f50c5010
DTITLE=1982 (Statik Selektah and Termanology) - 1982
DYEAR=2010
DGENRE=Rap
TTITLE0=The World Renown
TTITLE1=People Are Running
TTITLE2=Things I Dream (feat. Lil Fame of M.O.P.)
TTITLE3=Goin Back (feat. Cassidy and Xzibit)
TTITLE4=The Radio
TTITLE5=Wedding Bells (feat. Jared Evan)
TTITLE6=You Should Go Home (feat. Bun B and Masspike Miles)
TTITLE7=Tell Me Lies (feat. Styles P)
TTITLE8=Life Is What You Make It (feat. Saigon and Freeway)
TTITLE9=Freedom (feat. REKS)
TTITLE10=Still Waiting
TTITLE11=The Street Life
TTITLE12=Thugathon 2010 (feat. M.O.P.)
TTITLE13=The Hood Is On Fire (feat. Inspectah Deck)
TTITLE14=Born In 82
TTITLE15=Help
EXTD=
EXTT0=
EXTT1=
EXTT2=
EXTT3=
EXTT4=
EXTT5=
EXTT6=
EXTT7=
EXTT8=
EXTT9=
EXTT10=
EXTT11=
EXTT12=
EXTT13=
EXTT14=
EXTT15=
PLAYORDER=
